# xmcd
#
# Track frame offsets: 
#        150
#        22415
#        41575
#        66540
#        84957
#        106827
#        125620
#        150022
#        177590
#        205057
#        227525
#        260247
#
# Disc length: 4033 seconds
#
# Revision: 7
# Processed by: cddbd v1.5.2PL0 Copyright (c) Steve Scherf et al.
# Submitted via: ExactAudioCopy v1.0b1
#
DISCID=a10fbf0c
DTITLE=LAVILLIERS, Bernard - Histoires En Scène Cd2
DYEAR=2000
DGENRE=Rock
TTITLE0=On The Road Again
TTITLE1=La Malédiction Du Voyageur
TTITLE2=La Grande Marée
TTITLE3=La Ballade Des Pendus
TTITLE4=Chiens De Guerre
TTITLE5=Le Clan Mongol
TTITLE6=Exit
TTITLE7=Capitaine Des Sables
TTITLE8=La Salsa
TTITLE9=Melody
TTITLE10=Stand The Ghetto
TTITLE11=Berceuse Pour Une Shootée
EXTD=
EXTT0=
EXTT1=
EXTT2=
EXTT3=
EXTT4=
EXTT5=
EXTT6=
EXTT7=
EXTT8=
EXTT9=
EXTT10=
EXTT11=
PLAYORDER=
